<svg width="12" height="12" viewBox="0 0 12 12" fill="none" xmlns="http://www.w3.org/2000/svg">
<path d="M6.00008 0.166687C9.22008 0.166687 11.8334 2.78002 11.8334 6.00002C11.8334 9.22002 9.22008 11.8334 6.00008 11.8334C2.78008 11.8334 0.166748 9.22002 0.166748 6.00002C0.166748 2.78002 2.78008 0.166687 6.00008 0.166687ZM6.00008 10.6667C8.57841 10.6667 10.6667 8.57835 10.6667 6.00002C10.6667 3.42169 8.57841 1.33335 6.00008 1.33335C3.42175 1.33335 1.33341 3.42169 1.33341 6.00002C1.33341 8.57835 3.42175 10.6667 6.00008 10.6667ZM6.58342 6.00002V8.33335H5.41675V6.00002H3.66675L6.00008 3.66669L8.33342 6.00002H6.58342Z" fill="white"/>
</svg>
