<svg width="12" height="12" viewBox="0 0 12 12" fill="none" xmlns="http://www.w3.org/2000/svg">
<path d="M6.00004 11.8333C2.78004 11.8333 0.166706 9.21998 0.166707 5.99998C0.166707 2.77998 2.78004 0.166644 6.00004 0.166645C9.22004 0.166645 11.8334 2.77998 11.8334 5.99998C11.8334 9.21998 9.22004 11.8333 6.00004 11.8333ZM6.00004 1.33331C3.42171 1.33331 1.33337 3.42165 1.33337 5.99998C1.33337 8.57831 3.42171 10.6666 6.00004 10.6666C8.57837 10.6666 10.6667 8.57831 10.6667 5.99998C10.6667 3.42165 8.57837 1.33331 6.00004 1.33331ZM5.41671 5.99998L5.41671 3.66665L6.58337 3.66665L6.58337 5.99998L8.33337 5.99998L6.00004 8.33331L3.66671 5.99998L5.41671 5.99998Z" fill="white"/>
</svg>
